<svg xmlns="http://www.w3.org/2000/svg" x="0px" y="0px"
     width="40" height="40"
     viewBox="0 0 252 252"
     style="fill:#000000;"><g fill="none" fill-rule="nonzero" stroke="none" stroke-width="1" stroke-linecap="butt" stroke-linejoin="miter" stroke-miterlimit="10" stroke-dasharray="" stroke-dashoffset="0" font-family="none" font-weight="none" font-size="none" text-anchor="none" style="mix-blend-mode: normal"><path d="M0,252v-252h252v252z" fill="none" stroke="none"></path><path d="M0,252v-252h252v252z" fill="#ffffff" stroke="none"></path><g><path d="M62.6976,52.6176l65.8224,65.8224" fill="none" stroke="#e1ebf2"></path><path d="M62.6472,72.7272l45.7128,45.7128" fill="none" stroke="#e1ebf2"></path><path d="M62.6976,92.9376l25.5024,25.5024" fill="none" stroke="#e1ebf2"></path><path d="M73.08,42.84l75.6,75.6" fill="none" stroke="#e1ebf2"></path><path d="M93.24,42.84l75.6,75.6" fill="none" stroke="#e1ebf2"></path><path d="M113.4,42.84l75.6,75.6" fill="none" stroke="#e1ebf2"></path><path d="M133.56,42.84l55.2384,55.2384" fill="none" stroke="#e1ebf2"></path><path d="M153.72,42.84l35.1288,35.1288" fill="none" stroke="#e1ebf2"></path><path d="M189.3024,52.6176l-65.8224,65.8224" fill="none" stroke="#e1ebf2"></path><path d="M189.3528,72.7272l-45.7128,45.7128" fill="none" stroke="#e1ebf2"></path><path d="M189.3024,92.9376l-25.5024,25.5024" fill="none" stroke="#e1ebf2"></path><path d="M178.92,42.84l-75.6,75.6" fill="none" stroke="#e1ebf2"></path><path d="M158.76,42.84l-75.6,75.6" fill="none" stroke="#e1ebf2"></path><path d="M138.6,42.84l-75.6,75.6" fill="none" stroke="#e1ebf2"></path><path d="M118.44,42.84l-55.2384,55.2384" fill="none" stroke="#e1ebf2"></path><path d="M98.28,42.84l-35.1288,35.1288" fill="none" stroke="#e1ebf2"></path><path d="M183.96,118.44v-70.56h-115.92v70.56h-10.08v-80.64h136.08v80.64z" fill="#ffffff" stroke="none"></path><path d="M191.52,40.32v75.6h-5.04v-70.56h-120.96v70.56h-5.04v-75.6h131.04M196.56,35.28h-141.12v85.68h15.12v-70.56h110.88v70.56h15.12z" fill="#788b9c" stroke="none"></path><rect x="7" y="23" transform="scale(5.04,5.04)" width="36" height="20" fill="#5e9c76" stroke="none"></rect><rect x="7" y="24" transform="scale(5.04,5.04)" width="36" height="19" fill="#bae0bd" stroke="none"></rect><ellipse cx="25" cy="41" transform="scale(5.04,5.04)" rx="4" ry="1" fill="#ffffff" stroke="none"></ellipse><circle cx="25" cy="35" transform="scale(5.04,5.04)" r="5.5" fill="#ffffff" stroke="none"></circle><path d="M126,151.2c13.91758,0 25.2,11.28242 25.2,25.2c0,13.91758 -11.28242,25.2 -25.2,25.2c-13.91758,0 -25.2,-11.28242 -25.2,-25.2c0,-13.91758 11.28242,-25.2 25.2,-25.2M126,146.16c-16.70109,0 -30.24,13.53891 -30.24,30.24c0,16.70109 13.53891,30.24 30.24,30.24c16.70109,0 30.24,-13.53891 30.24,-30.24c0,-16.70109 -13.53891,-30.24 -30.24,-30.24z" fill="#788b9c" stroke="none"></path><path d="M126,166.572l9.9792,7.2072l-3.8304,11.7432h-12.2976l-3.8304,-11.7432z" fill="#788b9c" stroke="none"></path><path d="M95.76,176.4l1.8144,1.7136l10.7856,-5.9976l-2.52,-12.1968l-5.04,-0.6048c-3.35738,5.05998 -5.11359,11.01354 -5.04,17.0856z" fill="#788b9c" stroke="none"></path><path d="M136.08,150.3432l-0.8568,-2.6208c-5.90534,-2.0707 -12.33946,-2.0707 -18.2448,0l-0.8568,2.6208l10.08,7.2576z" fill="#788b9c" stroke="none"></path><path d="M104.3784,193.3848l-0.9072,2.9736c4.18635,4.74734 9.7568,8.06141 15.9264,9.4752l1.3104,-0.9576l-3.9816,-11.6928z" fill="#788b9c" stroke="none"></path><path d="M149.1336,195.6528l-0.7056,-2.268h-12.348l-3.9816,11.6928l1.0584,0.8064c6.28522,-1.60826 11.88659,-5.19526 15.9768,-10.2312z" fill="#788b9c" stroke="none"></path><path d="M151.2,159.3648l-4.1832,0.504l-2.3688,12.096l10.7856,5.9976l0.9072,-0.8568c0,0 0,-0.504 0,-0.756c0.02354,-6.04831 -1.76718,-11.96471 -5.1408,-16.9848z" fill="#788b9c" stroke="none"></path></g></g></svg>
